<svg t="1642735310426" class="icon" viewBox="0 0 1024 1024" version="1.1" xmlns="http://www.w3.org/2000/svg" p-id="6061" width="200" height="200" data-spm-anchor-id="a313x.7781069.0.i4"><path d="M962.792986 483.991086l-0.063445-0.926092c-0.068562-0.998747-0.138146-1.99647-0.210801-2.976798-3.015683-41.340547-11.721973-82.003666-25.869181-120.846322-0.213871-0.591471-0.431835-1.179872-0.649799-1.769296l-0.293689-0.796132c-0.239454-0.64673-0.478907-1.292436-0.717338-1.925862-0.525979-1.400906-1.058099-2.797719-1.597381-4.191462l-0.14224-0.426719-0.106424-0.211824c-17.800411-45.852304-42.899042-88.304162-74.592882-126.175701-41.479717-49.793056-92.02081-89.290629-150.20293-117.388571l-0.856507-0.406253c-74.347289-36.569894-157.355841-51.712779-240.016469-43.796482-81.786725 7.535627-159.937642 37.518498-226.00536 86.706781-35.483142 26.417673-66.708308 57.723679-92.76987 92.992951-24.426319 32.550347-44.353161 68.331271-59.217706 106.318444-26.882254 67.987441-36.840046 142.502551-28.797883 215.489866 11.025101 100.05888 53.408397 191.068663 122.540917 263.163655 35.239596 37.058011 76.048023 67.559699 121.29146 90.656743 45.404096 23.178909 94.382601 38.442544 145.57861 45.367257 1.092891 0.148379 2.184759 0.221034 3.269463 0.221034 5.236258 0 10.302647-1.700735 14.535041-4.926196 3.201925-2.438539 5.688559-5.567809 7.312546-9.128915l1.750877 0.185218 1.941212-9.286504c13.749142-65.756633 25.623587-122.546034 34.220383-151.893432 13.378705-45.788859 33.308617-97.259114 59.254545-153.028279 26.197662-57.158814 56.755632-111.187335 90.827635-160.583348 34.036187-49.343825 61.576427-84.34806 81.858356-104.040564l2.793626-2.712785 0-84.138282L278.80796 283.517215l0 100.311637 347.579253 0c-41.097 49.225121-80.840166 107.040898-118.333082 172.175361C445.442118 665.571654 401.984351 777.212314 378.800325 888.001583c-43.763736-14.95255-84.145445-37.177737-120.182196-66.159816-1.094938-1.424442-2.343371-2.716878-3.722788-3.856841C172.33909 749.845013 121.265878 653.625578 111.085004 547.051307c-5.322216-55.710836 0.839111-110.726847 18.313088-163.521261 16.878412-50.995441 43.439348-97.484242 78.897931-138.120754 28.095895-31.694863 60.730153-58.652841 96.996125-80.125899 37.267788-22.065552 77.651544-37.889959 120.018467-47.031153l1.971911-0.415462c0.805342-0.169869 1.611707-0.338714 2.409886-0.50142 85.086887-17.275455 175.262676-6.417153 253.844405 30.540573 57.83829 27.815509 108.754936 69.862137 147.245575 121.595382 63.510476 85.364203 90.242304 190.399421 75.271334 295.751864-0.306992 2.152013-0.314155 4.331655-0.021489 6.505158-10.979052 69.65236-40.616046 135.602398-85.765339 190.800557-4.046153 4.945639-5.924943 11.172457-5.288446 17.532305 0.636496 6.362918 3.713578 12.094456 8.658194 16.134469 3.109828 2.543939 6.755868 4.240581 10.665921 4.978385 10.18599 6.097882 23.699772 3.816932 31.214932-5.675256 35.112706-44.219107 61.336974-93.631494 77.942163-146.865929C960.036199 595.485413 966.541357 540.091802 962.792986 483.991086z" p-id="6062" fill="#1296db"></path></svg>
